
        <svg xmlns="http://www.w3.org/2000/svg" xmlns:xlink="http://www.w3.org/1999/xlink" version="1.1" width="3168.5393258426966" 
        height="1078.6516853932585" viewBox="0 0 3168.5393258426966 1078.6516853932585">
			<rect fill="#f2f2ec" width="3168.5393258426966" height="1078.6516853932585"/>
			<g transform="scale(8.426966292134832) translate(10, 10)">
				<defs id="SvgjsDefs5294"><linearGradient id="SvgjsLinearGradient5303"><stop id="SvgjsStop5304" stop-color="#2d388a" offset="0"></stop><stop id="SvgjsStop5305" stop-color="#00aeef" offset="1"></stop></linearGradient><linearGradient id="SvgjsLinearGradient5306"><stop id="SvgjsStop5307" stop-color="#2d388a" offset="0"></stop><stop id="SvgjsStop5308" stop-color="#00aeef" offset="1"></stop></linearGradient><linearGradient id="SvgjsLinearGradient5309"><stop id="SvgjsStop5310" stop-color="#2d388a" offset="0"></stop><stop id="SvgjsStop5311" stop-color="#00aeef" offset="1"></stop></linearGradient></defs><g id="SvgjsG5295" featureKey="LwVBM5-0" transform="matrix(2.0533880581804773,0,0,2.0533880581804773,-1.642710471022675,3.018481385491758)" fill="url(#SvgjsLinearGradient5303)"><g xmlns="http://www.w3.org/2000/svg"><path d="M34,19.8L28.9,7.2l-2.1,4.7l0.3-0.1c0,0.1-4.6,9.6-4.3,9c0-0.1,2.1-6.4,2-6l-5-11.4l-7.9,13.9l-2.2-4.7L1.2,25v2.2l2.9-3.7   v5.3l-1.5,2.7l4.8-4.5v1l0.9-1.6l-1.6-2.9h1l-1.1-3.2l2.1-2.7l2.2,4.3l8-13.3l0,0.2L16.5,14l2.4,2.2l-1.1-2.4l2.7,3.3l-1.2-4.5   l0.5,0.3l0.2-1.3l1.6,5c-3.3,14.1-2.1,9.2-2.4,10.3l1.6-2.4l5.1-5.3l1.4,1.9l0.1-0.2l0.6-1.8l4.6,6.4l1.5-1.8l3.4,6.9l1.1-1   l3.8,4.3v2.1l1.5,1.4h5.6L37.6,18.3L34,19.8z M37.3,26.9l-0.1-1.8l1.7,1.5c0,0,0,0,0,0l0,0c-0.1-0.1-1.5-2.1-1.8-2.4l-0.2-3.3   l3.7,7.3L37.3,26.9z"></path><polygon points="28.5,23.5 27,21.6 27,24.3 23.8,26.4 25.4,27.5  "></polygon><path d="M17.1,25.3v3.2l-3.6,3.4h5.4l4.6-5c-0.3,0.2-5.2,3.2-5,3.1v-3.1L17.1,25.3z"></path><path d="M0.8,32.8c0.1,0,4.9,0.3,15,3.6c1.3,0.4,14.7,4.9,14.8,4.9c-3.3-1.7-6.2-3.7-14.3-6.4C5.8,31.7,0.9,32.8,0.8,32.8z"></path><path d="M20.4,34.7c0,0,0.3-0.4,1-0.8c3.6-2.4,9.1,0.4,12.5,2.1c3.6,1.9,8.8,4.6,13.1,4.5c0.8,0,1.3-0.2,1.3-0.2   c-0.5-0.2-1.5,1-13.6-5.6C22.5,28.7,20.9,34.5,20.4,34.7z"></path><path d="M11.6,46.1c-0.3,0.2-0.4,0.3-0.4,0.3S11.3,46.3,11.6,46.1c3.7-1.4,30.4-0.9,27-4.5c0,0-0.1-0.1-0.1-0.1   c-5.2-3-6.1-3.3-12.2-5.9c0.1,0.1,9.3,5.5,10.7,6.4C33,43,15.1,44,11.6,46.1z M37.6,42.6C37.6,42.6,37.6,42.6,37.6,42.6   C37.6,42.6,37.6,42.7,37.6,42.6z"></path></g></g><g id="SvgjsG5296" featureKey="textGroupContainer" transform="matrix(1,0,0,1,355,0)" fill="#182973"><rect xmlns="http://www.w3.org/2000/svg" y="0" height="1" width="1" opacity="0"></rect><rect xmlns="http://www.w3.org/2000/svg" y="0" x="-235" width="3" height="108"></rect></g><g id="SvgjsG5297" featureKey="YhTCwJ-0" transform="matrix(2.443792875726256,0,0,2.443792875726256,133.69892339673638,15.07429048678597)" fill="url(#SvgjsLinearGradient5306)"><path d="M3.88 5.84 l8.2 11.76 l0.04 0 l0 -11.76 l1.68 0 l0 14.16 l-2.12 0 l-8.2 -11.76 l-0.04 0 l0 11.76 l-1.68 0 l0 -14.16 l2.12 0 z M23.700000000000003 5.48 q1.66 0 2.94 0.59 t2.06 1.63 l-1.46 1.06 q-0.64 -0.86 -1.58 -1.29 t-1.96 -0.43 q-2.26 0 -3.81 1.72 t-1.59 4.16 q0 2.52 1.54 4.19 t3.86 1.69 q2.54 0 4.1 -1.98 l1.26 1.06 q-1.86 2.48 -5.36 2.48 q-3.1 0 -5.13 -2.14 t-2.07 -5.3 q0 -3.16 2.05 -5.28 t5.15 -2.16 z M39.040000000000006 7.98 l0 2.66 l2.76 0 l0 1.32 l-2.76 0 l0 5 q0 1.12 0.36 1.48 t1.04 0.36 q0.78 0 1.38 -0.32 l0.06 1.42 q-0.8 0.34 -1.82 0.34 q-1.44 0 -2.01 -0.71 t-0.57 -2.33 l0 -5.24 l-2.04 0 l0 -1.32 l2.04 0 l0 -2.66 l1.56 0 z M48.32 10.4 q0.36 0 0.64 0.1 l-0.1 1.58 q-0.44 -0.12 -0.84 -0.12 q-1.36 0 -2.05 0.89 t-0.69 2.51 l0 4.64 l-1.56 0 l0 -7.28 q0 -0.28 -0.08 -2.08 l1.48 0 q0.04 1.4 0.04 1.54 l0.04 0 q0.38 -0.8 1.23 -1.29 t1.89 -0.49 z M54.36 10.4 q2.04 0 2.97 0.96 t0.95 2.9 l0 4.2 q0 0.6 0.14 1.54 l-1.5 0 q-0.1 -0.18 -0.1 -1.4 l-0.04 0 q-1.06 1.6 -3.08 1.64 q-1.54 0 -2.51 -0.77 t-0.97 -2.01 q0 -1.7 1.4 -2.49 t4.38 -0.79 l0.72 0 l0 -0.26 q0 -2.04 -2.32 -2.08 q-1.68 0 -2.78 1.02 l-0.98 -1.02 q1.44 -1.4 3.72 -1.44 z M51.9 17.3 q0 1.58 2.06 1.62 q1.22 0 1.99 -0.78 t0.77 -2.28 l0 -0.36 l-1.72 0 q-1.38 0 -2.23 0.44 t-0.87 1.36 z M61.68000000000001 10.64 l2.92 7.34 l0.04 0 l2.78 -7.34 l1.68 0 l-3.7 9.36 l-1.72 0 l-3.82 -9.36 l1.82 0 z M75.04 10.4 q2.08 0 3.25 1.31 t1.19 3.71 l0 0.38 l-7.56 0 q0.12 1.3 0.98 2.14 t2.1 0.86 q1.9 0 2.96 -1.42 l1.18 0.92 q-0.74 0.96 -1.74 1.45 t-2.4 0.49 q-2.14 0 -3.44 -1.39 t-1.32 -3.53 q0 -2.12 1.33 -3.5 t3.47 -1.42 z M77.80000000000001 14.48 q-0.06 -1.22 -0.79 -1.93 t-2.05 -0.71 q-1.2 0 -2.02 0.68 t-1.02 1.96 l5.88 0 z M83.60000000000002 4.880000000000001 l0 15.12 l-1.56 0 l0 -15.12 l1.56 0 z"></path></g><g id="SvgjsG5298" featureKey="duLK5n-0" transform="matrix(0.4351089415564692,0,0,0.4351089415564692,137.4343583967242,72.68522160108485)" fill="url(#SvgjsLinearGradient5309)"><path d="M1.3 20 l0 -14.24 l5.12 0 c0.9 0 1.76 0.36 2.38 1 c0.64 0.62 1 1.48 1 2.38 c0 0.7 -0.2 1.36 -0.6 1.92 l-0.02 0.02 l0.02 0.02 c0.56 0.22 1.08 0.56 1.5 1 c0.88 0.86 1.36 2.02 1.36 3.26 c0 1.22 -0.48 2.38 -1.36 3.26 c-0.86 0.86 -2.02 1.38 -3.24 1.38 l-6.16 0 z M3.08 18.26 l4.38 0 c1.56 -0.04 2.82 -1.36 2.82 -2.9 c0 -1.56 -1.26 -2.84 -2.82 -2.86 l-4.38 0 l0 5.76 z M3.08 10.76 l3.34 0 c0.88 -0.02 1.6 -0.74 1.6 -1.62 s-0.7 -1.6 -1.6 -1.64 l-3.34 0 l0 3.26 z M28.156000000000002 20 l0 -14.24 l9 0 l0 1.72 l-7.2 0 l0 3.34 l6.28 0 l0 1.78 l-6.28 0 l0 5.64 l7.02 0 l0 1.76 l-8.82 0 z M58.952000000000005 20.14 c-0.48 0 -0.96 -0.06 -1.44 -0.16 c-1.48 -0.3 -2.94 -1.04 -4.24 -2.16 l1.18 -1.34 c1.06 0.92 2.24 1.54 3.42 1.78 c1 0.22 1.98 0.14 2.76 -0.22 c0.52 -0.24 1.42 -0.84 1.42 -2.06 c0 -1.5 -1.6 -2.04 -3.16 -2.34 c-0.14 -0.02 -2.38 -0.48 -3.28 -1 c-1.2 -0.72 -1.84 -1.8 -1.84 -3.12 c0 -0.74 0.24 -1.44 0.66 -2.06 c0.42 -0.56 1 -1.02 1.68 -1.34 c1 -0.48 2.18 -0.62 3.38 -0.42 c1.3 0.22 2.62 0.84 3.78 1.8 l-1.14 1.38 c-2.06 -1.7 -4.06 -1.74 -5.26 -1.18 c-0.82 0.38 -1.3 1.08 -1.3 1.8 c0 1.36 1.16 1.88 3 2.28 c0.76 0.18 2.34 0.44 3.28 0.98 c1.3 0.72 1.98 1.84 1.98 3.22 c0 0.82 -0.22 1.58 -0.68 2.24 c-0.42 0.6 -1.06 1.06 -1.78 1.42 c-0.76 0.38 -1.54 0.5 -2.42 0.5 z M83.22800000000001 20 l0 -12.48 l-3.76 0 l0 -1.76 l9.32 0 l0 1.76 l-3.76 0 l0 12.48 l-1.8 0 z M124.24000000000002 20 l0 -14.24 l9 0 l0 1.72 l-7.2 0 l0 3.34 l6.28 0 l0 1.78 l-6.28 0 l0 5.64 l7.02 0 l0 1.76 l-8.82 0 z M159.25600000000003 20 l-4.26 -5.96 l-4.28 5.96 l-2.18 0 l5.36 -7.48 l-4.84 -6.76 l2.2 0 l3.74 5.22 l3.74 -5.22 l2.18 0 l-4.84 6.76 l5.36 7.48 l-2.18 0 z M177.59200000000004 20 l0 -14.24 l4.96 0 c0.9 0 1.76 0.36 2.4 1 s1 1.5 1 2.4 c0 1.88 -1.54 3.38 -3.4 3.38 l-3.18 0 l0 7.46 l-1.78 0 z M182.55200000000005 10.8 c0.88 0 1.6 -0.74 1.6 -1.64 s-0.72 -1.66 -1.6 -1.66 l-3.18 0 l0 3.3 l3.18 0 z M202.68800000000005 20 l0 -14.24 l9 0 l0 1.72 l-7.2 0 l0 3.34 l6.28 0 l0 1.78 l-6.28 0 l0 5.64 l7.02 0 l0 1.76 l-8.82 0 z M234.06400000000002 12.42 l5.5 7.58 l-2.06 0 l-5.44 -7.48 l-2.04 0 l0 7.48 l-1.72 0 l0 -14.24 l4.94 0 c0.9 0 1.74 0.36 2.38 1 s1 1.48 1 2.38 c0 1.58 -1.1 2.9 -2.56 3.28 z M230.02400000000003 7.48 l0 3.32 l3.22 0 c0.92 0 1.66 -0.74 1.66 -1.66 s-0.74 -1.66 -1.66 -1.66 l-3.22 0 z M255.82000000000002 20 l0 -14.24 l1.8 0 l0 14.24 l-1.8 0 z M275.876 20 l0 -14.24 l9 0 l0 1.72 l-7.2 0 l0 3.34 l6.28 0 l0 1.78 l-6.28 0 l0 5.64 l7.02 0 l0 1.76 l-8.82 0 z M311.132 20 l-7.62 -11.26 l0 11.26 l-1.8 0 l0 -14.24 l1.96 0 l7.6 11.26 l0 -11.26 l1.8 0 l0 14.24 l-1.94 0 z M337.268 18.46 c1.78 0 3.44 -0.82 4.54 -2.26 l1.4 1.04 c-1.42 1.9 -3.6 2.98 -5.94 2.98 c-4.12 0 -7.46 -3.34 -7.46 -7.46 c0 -4.1 3.34 -7.44 7.46 -7.44 c2.36 0 4.54 1.1 5.96 3 l-1.42 1.04 c-1.08 -1.46 -2.74 -2.28 -4.54 -2.28 c-3.16 0 -5.7 2.54 -5.7 5.68 c0 3.16 2.54 5.7 5.7 5.7 z M360.024 20 l0 -14.24 l9 0 l0 1.72 l-7.2 0 l0 3.34 l6.28 0 l0 1.78 l-6.28 0 l0 5.64 l7.02 0 l0 1.76 l-8.82 0 z"></path></g>
			</g>
		</svg>
	